<svg width="24" height="25" viewBox="0 0 24 25" fill="none" xmlns="http://www.w3.org/2000/svg">
<g opacity="0.7">
<path d="M18.4437 17.1875L15.232 14.4406C16.1766 13.2195 16.6875 11.7266 16.6875 10.1562C16.6875 8.27656 15.9539 6.51406 14.6273 5.18516C13.3008 3.85625 11.5336 3.125 9.65625 3.125C7.77891 3.125 6.01172 3.85859 4.68516 5.18516C3.35625 6.51172 2.625 8.27656 2.625 10.1562C2.625 12.0336 3.35859 13.8008 4.68516 15.1273C6.01172 16.4562 7.77656 17.1875 9.65625 17.1875C11.2266 17.1875 12.7172 16.6766 13.9383 15.7344L17.1499 18.4789C17.1678 18.4968 17.189 18.5109 17.2123 18.5206C17.2356 18.5303 17.2606 18.5352 17.2859 18.5352C17.3111 18.5352 17.3361 18.5303 17.3594 18.5206C17.3828 18.5109 17.4039 18.4968 17.4218 18.4789L18.4437 17.4594C18.4615 17.4415 18.4757 17.4203 18.4854 17.397C18.495 17.3737 18.5 17.3487 18.5 17.3234C18.5 17.2982 18.495 17.2732 18.4854 17.2499C18.4757 17.2265 18.4615 17.2053 18.4437 17.1875ZM13.3688 13.8688C12.375 14.8602 11.0578 15.4062 9.65625 15.4062C8.25469 15.4062 6.9375 14.8602 5.94375 13.8688C4.95234 12.875 4.40625 11.5578 4.40625 10.1562C4.40625 8.75469 4.95234 7.43516 5.94375 6.44375C6.9375 5.45234 8.25469 4.90625 9.65625 4.90625C11.0578 4.90625 12.3773 5.45 13.3688 6.44375C14.3602 7.4375 14.9062 8.75469 14.9062 10.1562C14.9062 11.5578 14.3602 12.8773 13.3688 13.8688Z" fill="white"/>
</g>
</svg>
